# AST/ASF file generated using VICON BodyLanguage
# -----------------------------------------------
:version 1.10
:name VICON
:units
  mass 1.0
  length 0.45
  angle deg
:documentation
   .ast/.asf automatically generated from VICON data using
   VICON BodyBuilder and BodyLanguage model FoxedUp or BRILLIANT.MOD
:root
   order TX TY TZ RX RY RZ
   axis XYZ
   position 0 0 0  
   orientation 0 0 0 
:bonedata
  begin
     id 1 
     name lhipjoint
     direction 0.63403 -0.759788 0.143974 
     length 2.51904 
     axis 0 0 0  XYZ
  end
  begin
     id 2 
     name lfemur
     direction 0.34202 -0.939693 0  
     length 7.42313  
     axis 0 0 20  XYZ
    dof rx ry rz
    limits (-160.0 20.0)
           (-70.0 70.0)
           (-60.0 70.0)
  end
  begin
     id 3 
     name ltibia
     direction 0.34202 -0.939693 0   
     length 8.10141   
     axis 0 0 20   XYZ
    dof rx
    limits (-10.0 170.0)
  end
  begin
     id 4 
     name lfoot
     direction 0.0927455 -0.254816 0.962532   
     length 2.14078   
     axis -90 7.62852e-016 20   XYZ
    dof rx rz
    limits (-45.0 90.0)
           (-70.0 20.0)
  end
  begin
     id 5 
     name ltoes
     direction 1.53556e-011 -4.21949e-011 1   
     length 1.07182   
     axis -90 7.62852e-016 20   XYZ
    dof rx
    limits (-90.0 20.0)
  end
  begin
     id 6 
     name rhipjoint
     direction -0.659892 -0.738223 0.139888   
     length 2.59263  
     axis 0 0 0  XYZ 
  end
  begin
     id 7 
     name rfemur
     direction -0.34202 -0.939693 0   
     length 7.58575   
     axis 0 0 -20   XYZ
    dof rx ry rz
    limits (-160.0 20.0)
           (-70.0 70.0)
           (-70.0 60.0)
  end
  begin
     id 8 
     name rtibia
     direction -0.34202 -0.939693 0   
     length 8.19358   
     axis 0 0 -20   XYZ
    dof rx
    limits (-10.0 170.0)
 end
 begin
     id 9 
     name rfoot
     direction -0.0856543 -0.235333 0.968133   
     length 2.13415  
     axis -90 -7.62852e-016 -20   XYZ
    dof rx rz
    limits (-45.0 90.0)
           (-20.0 70.0)
  end
  begin
     id 10 
     name rtoes
     direction -1.53551e-011 -4.21811e-011 1   
     length 1.07055   
     axis -90 -7.62852e-016 -20   XYZ
    dof rx
    limits (-90.0 20.0)
  end
  begin
     id 11 
     name lowerback
     direction 0.025219 0.998394 -0.0507326   
     length 1.91844   
     axis 0 0 0   XYZ
    dof rx ry rz
    limits (-20.0 45.0)
           (-30.0 30.0)
           (-30.0 30.0)
  end
  begin
     id 12 
     name upperback
     direction 0.0213103 0.99967 -0.0143101   
     length 1.92246   
     axis 0 0 0   XYZ
    dof rx ry rz
    limits (-20.0 45.0)
           (-30.0 30.0)
           (-30.0 30.0)
  end
  begin
     id 13 
     name thorax
     direction 0.00920974 0.99991 0.00971518   
     length 1.92239   
     axis 0 0 0   XYZ
    dof rx ry rz
    limits (-20.0 45.0)
           (-30.0 30.0)
           (-30.0 30.0)
  end
  begin
     id 14 
     name lowerneck
     direction 0.0598257 0.997249 0.0437612   
     length 3.13679   
     axis 0 0 0   XYZ
    dof rx ry rz
    limits (-20.0 45.0)
           (-30.0 30.0)
           (-30.0 30.0)
  end
  begin
     id 15 
     name upperneck
     direction -0.035342 0.999338 0.00863891   
     length 3.16283   
     axis 0 0 0   XYZ
    dof rx ry rz
    limits (-20.0 45.0)
           (-30.0 30.0)
           (-30.0 30.0)
  end
  begin
     id 16
     name head
     direction 0.37144 0.811566 0.450991  
     length 1.2838  
     axis 0 0 0   XYZ
    dof rx ry rz
    limits (-20.0 45.0)
           (-30.0 30.0)
           (-30.0 30.0)
  end
  begin
     id 17 
     name lclavicle
     direction 0.961094 0.274654 -0.0293862  
     length 3.63466  
     axis 0 0 0   XYZ
    dof ry rz
    limits (-20.0 10.0)
           (0.0 20.0)
  end
  begin
     id 18 
     name lhumerus
     direction 1 -4.48963e-011 1.10303e-027   
     length 5.12842   
     axis 180 -30 -90   XYZ
    dof rx ry rz
    limits (-60.0 90.0)
           (-90.0 90.0)
           (-90.0 90.0)
  end
  begin
     id 19
     name lradius
     direction 1 -4.48968e-011 4.13199e-027   
     length 3.47396   
     axis 180 -30 -90   XYZ
    dof rx
    limits (-10.0 170.0)
  end
  begin
     id 20
     name lwrist
     direction 1 -4.48948e-011 9.12708e-027   
     length 1.73698   
     axis -6.84618e-015 90 90   XYZ
    dof ry
    limits (-180.0 0.0)
 end
  begin
     id 21 
     name lhand
     direction 1 -4.49057e-011 1.82749e-026   
     length 0.728607   
     axis -1.16502e-014 90 90   XYZ
    dof rx rz
    limits (-90.0 90.0)
           (-45.0 45.0)
  end
  begin
     id 22 
     name lfingers
     direction 1 -4.48912e-011 3.64949e-026   
     length 0.587422   
     axis -2.33008e-014 90 90   XYZ
    dof rx
    limits (0.0 90.0)
  end
  begin
     id 23
     name lthumb
     direction 0.707107 -6.34995e-011 0.707107   
     length 0.843424   
     axis -90 45 5.69224e-014   XYZ
    dof rx rz
    limits (-45.0 45.0)
           (-45.0 45.0)
  end
  begin
     id 24 
     name rclavicle
     direction -0.90514 0.421881 -0.0523369   
     length 3.57139  
     axis 0 0 0   XYZ 
    dof ry rz
    limits (-10.0 20.0)
           (-20.0 0.0)
  end
  begin
     id 25 
     name rhumerus
     direction -1 -4.48954e-011 -1.76662e-027  
     length 5.48477   
     axis 180 30 90   XYZ
    dof rx ry rz
    limits (-90.0 60.0)
           (-90.0 90.0)
           (-90.0 90.0)
  end
  begin
     id 26 
     name rradius
     direction -1 -4.48982e-011 1.26841e-027   
     length 3.47856   
     axis 180 30 90   XYZ
    dof rx
    limits (-10.0 170.0)
  end
  begin
     id 27 
     name rwrist
     direction -1 -4.49037e-011 9.13554e-027   
     length 1.73928   
     axis -6.84618e-015 -90 -90   XYZ
    dof ry
    limits (-180.0 0.0)
  end
  begin
     id 28
     name rhand
     direction -1 -4.48871e-011 1.82397e-026   
     length 0.709974   
     axis -1.16502e-014 -90 -90   XYZ
    dof rx rz
    limits (-90.0 90.0)
           (-45.0 45.0)
  end
  begin
     id 29
     name rfingers
     direction -1 -4.48994e-011 3.65258e-026   
     length 0.572399   
     axis -2.33008e-014 -90 -90   XYZ
    dof rx
    limits (0.0 90.0)
  end
  begin
     id 30
     name rthumb
     direction -0.707107 -6.34861e-011 0.707107   
     length 0.821855   
     axis -90 -45 -5.69224e-014   XYZ
    dof rx rz
    limits (-45.0 45.0)
           (-45.0 45.0)
  end
:hierarchy
  begin
    root lhipjoint rhipjoint lowerback
    lhipjoint lfemur
    lfemur ltibia
    ltibia lfoot
    lfoot ltoes
    rhipjoint rfemur
    rfemur rtibia
    rtibia rfoot
    rfoot rtoes
    lowerback upperback
    upperback thorax
    thorax lowerneck lclavicle rclavicle
    lowerneck upperneck
    upperneck head
    lclavicle lhumerus
    lhumerus lradius
    lradius lwrist
    lwrist lhand lthumb
    lhand lfingers
    rclavicle rhumerus
    rhumerus rradius
    rradius rwrist
    rwrist rhand rthumb
    rhand rfingers
  end

#!OML:ASF F:\VICON\USERDATA\INSTALL\Justin1\Justin1.ASF
:FULLY-SPECIFIED
:DEGREES
1097
root -17.4364 17.6266 -21.6889 3.32103 24.0053 -7.72651
lowerback 9.73423 1.9147 4.02213
upperback -0.00812355 3.23243 3.67561
thorax -5.46907 1.54271 1.12214
lowerneck -12.4013 4.82104 1.2583
upperneck 20.836 9.2151 -11.3117
head 9.22431 3.32896 -2.97368
rclavicle -7.78242e-014 2.3059e-014
rhumerus -31.4418 -7.88511 -79.0215
rradius 33.4101
rwrist -6.6387
rhand -26.4942 15.0881
rfingers 7.12502
rthumb 0.0684619 -14.8917
lclavicle -7.78242e-014 2.3059e-014
lhumerus -33.4165 14.7001 84.0665
lradius 34.2162
lwrist -8.69539
lhand -12.9079 28.8409
lfingers 7.12502
lthumb 13.182 58.4042
rfemur -22.9366 5.07778 29.0111
rtibia 37.1713
rfoot -16.1544 -9.38209
rtoes 11.6671
lfemur -33.9515 -7.69401 -12.9427
ltibia 65.028
lfoot -17.5152 -2.09869
ltoes -2.38629
1098
root -17.4161 17.6272 -21.6424 3.52321 23.9735 -7.42351
lowerback 9.69666 1.93549 3.85341
upperback -0.005192 3.2308 3.56394
thorax -5.44687 1.54481 1.10096
lowerneck -12.6046 4.75857 1.17016
upperneck 20.8828 9.12552 -11.1879
head 9.26176 3.28232 -2.92404
rclavicle -4.96962e-016 -2.42517e-014
rhumerus -31.2175 -7.62123 -79.1785
rradius 32.34
rwrist -4.59089
rhand -28.7607 18.4083
rfingers 7.12502
rthumb -2.12058 -11.5609
lclavicle -4.96962e-016 -2.42517e-014
lhumerus -33.3247 14.6357 84.1039
lradius 34.1287
lwrist -8.78897
lhand -13.0089 28.7071
lfingers 7.12502
lthumb 13.0846 58.2766
rfemur -22.8577 5.14513 28.7157
rtibia 37.2364
rfoot -16.3008 -9.59712
rtoes 11.8895
lfemur -34.7385 -7.74948 -13.2341
ltibia 65.0708
lfoot -17.8314 -2.11215
ltoes -2.22277
1099
root -17.3921 17.6341 -21.5907 3.68527 23.9551 -7.11521
lowerback 9.56937 1.92378 3.6272
upperback 0.0388504 3.17773 3.54135
thorax -5.33956 1.52628 1.21597
lowerneck -12.6766 4.71523 0.912156
upperneck 20.8883 9.09496 -11.0709
head 9.25824 3.25669 -2.84302
rclavicle -1.3418e-014 -1.74931e-014
rhumerus -30.8496 -7.64209 -78.9613
rradius 33.1774
rwrist -6.49921
rhand -25.811 15.0955
rfingers 7.12502
rthumb 0.728249 -14.883
lclavicle -1.3418e-014 -1.74931e-014
lhumerus -33.4102 14.8243 84.2323
lradius 34.3055
lwrist -8.9269
lhand -13.1167 28.8142
lfingers 7.12502
lthumb 12.9807 58.3904
rfemur -22.6973 5.14058 28.4214
rtibia 37.2955
rfoot -16.5517 -9.75482
rtoes 11.3698
lfemur -35.3822 -7.81816 -13.5454
ltibia 64.948
lfoot -18.3712 -1.77033
ltoes -2.15814
1100
root -17.3725 17.6351 -21.5397 3.6383 23.9557 -7.09854
lowerback 9.66286 1.91268 3.63617
upperback 0.064393 3.171 3.58155
thorax -5.36733 1.52308 1.25109
lowerneck -12.8634 4.60329 0.662084
upperneck 21.0107 8.98442 -10.9485
head 9.31185 3.18554 -2.77076
rclavicle -3.00165e-014 -3.57812e-014
rhumerus -30.5176 -7.65338 -78.848
rradius 33.2707
rwrist -7.0325
rhand -24.7917 14.0459
rfingers 7.12502
rthumb 1.71277 -15.927
lclavicle -3.00165e-014 -3.57812e-014
lhumerus -33.5809 14.9494 84.3173
lradius 34.6042
lwrist -8.98548
lhand -13.0955 29.2722
lfingers 7.12502
lthumb 13.0012 58.847
rfemur -22.4407 5.30276 28.4378
rtibia 37.3043
rfoot -16.7411 -10.0695
rtoes 10.9152
lfemur -36.0485 -7.88322 -13.4882
ltibia 64.6684
lfoot -18.8857 -1.56156
ltoes -2.62559
1101
root -17.3514 17.6308 -21.4901 3.60041 24.0504 -7.14849
lowerback 9.83005 1.88864 3.79132
upperback 0.0290073 3.16787 3.56124
thorax -5.48944 1.51486 1.13751
lowerneck -13.0176 4.47701 0.614904
upperneck 21.0434 8.82374 -10.9412
head 9.33931 3.10025 -2.77835
rclavicle -3.37934e-014 1.51076e-014
rhumerus -30.2016 -7.84139 -78.8476
rradius 32.9422
rwrist -6.87333
rhand -24.72 14.2522
rfingers 7.12502
rthumb 1.78196 -15.7201
lclavicle -3.37934e-014 1.51076e-014
lhumerus -33.6937 14.9204 84.2741
lradius 34.6934
lwrist -8.86833
lhand -13.0052 29.5662
lfingers 7.12502
lthumb 13.0881 59.1355
rfemur -22.1989 5.39628 28.5163
rtibia 37.2593
rfoot -16.8663 -10.3924
rtoes 10.796
lfemur -36.6883 -7.99292 -13.3383
ltibia 64.2385
lfoot -19.6025 -1.21325
ltoes -3.99051
1102
root -17.3261 17.6337 -21.4376 3.77674 24.197 -6.97349
lowerback 9.86978 1.83228 3.78166
upperback -0.0820987 3.09257 3.44323
thorax -5.62281 1.47317 1.02733
lowerneck -12.863 4.43131 0.828379
upperneck 20.9032 8.71665 -11.0606
head 9.26809 3.06655 -2.87026
rclavicle 3.57812e-015 -3.49861e-014
rhumerus -29.987 -7.8905 -78.9874
rradius 32.4253
rwrist -6.30511
rhand -25.4297 15.3683
rfingers 7.12502
rthumb 1.09658 -14.6086
lclavicle 3.57812e-015 -3.49861e-014
lhumerus -33.9798 14.8636 84.1032
lradius 34.8571
lwrist -8.58829
lhand -12.9335 29.3233
lfingers 7.12502
lthumb 13.1573 58.8882
rfemur -22.0344 5.32212 28.3523
rtibia 37.1422
rfoot -16.9961 -10.6198
rtoes 10.4819
lfemur -37.3319 -8.14464 -13.4097
ltibia 63.591
lfoot -20.2162 -0.641542
ltoes -4.87222
1103
root -17.2988 17.6403 -21.3805 3.91992 24.2402 -6.82848
lowerback 9.84061 1.78191 3.78992
upperback -0.152999 3.02117 3.33523
thorax -5.67489 1.43456 0.919961
lowerneck -12.7357 4.44525 0.968144
upperneck 20.8057 8.69209 -11.0794
head 9.21434 3.07259 -2.90449
rclavicle 9.17391e-014 4.37326e-014
rhumerus -29.9013 -7.69069 -79.224
rradius 31.5699
rwrist -4.67748
rhand -27.8068 18.2594
rfingers 7.12502
rthumb -1.19927 -11.717
lclavicle 9.17391e-014 4.37326e-014
lhumerus -34.371 14.8974 83.927
lradius 35.1535
lwrist -8.49093
lhand -12.8326 28.9784
lfingers 7.12502
lthumb 13.2546 58.537
rfemur -21.7814 5.36807 28.2148
rtibia 36.9285
rfoot -17.128 -10.9161
rtoes 9.84152
lfemur -37.8496 -8.23437 -13.4365
ltibia 62.7726
lfoot -20.5221 0.17899
ltoes -4.70807
